<mxfile host="app.diagrams.net" agent="Mozilla/5.0 (Windows NT 10.0; Win64; x64) AppleWebKit/537.36 (KHTML, like Gecko) Chrome/140.0.0.0 Safari/537.36" version="28.2.4">
  <diagram id="hxTzIv7vpmgUYz71Nf99" name="Página-1">
    <mxGraphModel dx="1486" dy="1631" grid="1" gridSize="10" guides="1" tooltips="1" connect="1" arrows="1" fold="1" page="0" pageScale="1" pageWidth="827" pageHeight="1169" math="0" shadow="0">
      <root>
        <mxCell id="0" />
        <mxCell id="1" parent="0" />
        <mxCell id="KDZxVL8id48o2jDcS9Ab-3" value="" style="shape=actor;whiteSpace=wrap;html=1;" vertex="1" parent="1">
          <mxGeometry x="930" y="83" width="40" height="60" as="geometry" />
        </mxCell>
        <mxCell id="KDZxVL8id48o2jDcS9Ab-5" style="rounded=0;orthogonalLoop=1;jettySize=auto;html=1;entryX=0.5;entryY=0;entryDx=0;entryDy=0;" edge="1" parent="1" source="KDZxVL8id48o2jDcS9Ab-10" target="KDZxVL8id48o2jDcS9Ab-8">
          <mxGeometry relative="1" as="geometry" />
        </mxCell>
        <mxCell id="KDZxVL8id48o2jDcS9Ab-6" style="edgeStyle=orthogonalEdgeStyle;rounded=0;orthogonalLoop=1;jettySize=auto;html=1;entryX=0.07;entryY=0.4;entryDx=0;entryDy=0;entryPerimeter=0;" edge="1" parent="1" source="KDZxVL8id48o2jDcS9Ab-8" target="KDZxVL8id48o2jDcS9Ab-21">
          <mxGeometry relative="1" as="geometry">
            <mxPoint x="491.99" y="-48" as="targetPoint" />
          </mxGeometry>
        </mxCell>
        <mxCell id="KDZxVL8id48o2jDcS9Ab-7" value="&amp;gt;&amp;gt;" style="edgeLabel;html=1;align=center;verticalAlign=middle;resizable=0;points=[];" vertex="1" connectable="0" parent="KDZxVL8id48o2jDcS9Ab-6">
          <mxGeometry x="-0.1229" y="1" relative="1" as="geometry">
            <mxPoint as="offset" />
          </mxGeometry>
        </mxCell>
        <mxCell id="KDZxVL8id48o2jDcS9Ab-8" value="" style="shape=actor;whiteSpace=wrap;html=1;" vertex="1" parent="1">
          <mxGeometry x="162.5" y="-78" width="40" height="60" as="geometry" />
        </mxCell>
        <mxCell id="KDZxVL8id48o2jDcS9Ab-9" style="edgeStyle=none;rounded=0;orthogonalLoop=1;jettySize=auto;html=1;exitX=0.13;exitY=0.77;exitDx=0;exitDy=0;exitPerimeter=0;" edge="1" parent="1" source="KDZxVL8id48o2jDcS9Ab-10">
          <mxGeometry relative="1" as="geometry">
            <mxPoint x="538.3603723404256" y="-78" as="targetPoint" />
          </mxGeometry>
        </mxCell>
        <mxCell id="KDZxVL8id48o2jDcS9Ab-10" value="" style="ellipse;shape=cloud;whiteSpace=wrap;html=1;" vertex="1" parent="1">
          <mxGeometry x="612.5" y="-260" width="120" height="80" as="geometry" />
        </mxCell>
        <mxCell id="KDZxVL8id48o2jDcS9Ab-11" value="Criar uma arena customizada, baseada em uma arena base" style="text;html=1;align=center;verticalAlign=middle;resizable=0;points=[];autosize=1;strokeColor=none;fillColor=none;" vertex="1" parent="1">
          <mxGeometry x="502.5" y="-180" width="340" height="30" as="geometry" />
        </mxCell>
        <mxCell id="KDZxVL8id48o2jDcS9Ab-12" value="Decidir que paredes devem ser inseridas" style="text;whiteSpace=wrap;" vertex="1" parent="1">
          <mxGeometry x="70" y="-8" width="225" height="40" as="geometry" />
        </mxCell>
        <mxCell id="KDZxVL8id48o2jDcS9Ab-13" value="Salvar os botões selecionados" style="text;whiteSpace=wrap;align=center;" vertex="1" parent="1">
          <mxGeometry x="932.5" y="-18" width="200" height="40" as="geometry" />
        </mxCell>
        <mxCell id="KDZxVL8id48o2jDcS9Ab-14" value="" style="shape=mxgraph.cisco.people.androgenous_person;html=1;pointerEvents=1;dashed=0;fillColor=#036897;strokeColor=#ffffff;strokeWidth=2;verticalLabelPosition=bottom;verticalAlign=top;align=center;outlineConnect=0;" vertex="1" parent="1">
          <mxGeometry x="811.5" y="-81" width="49" height="60" as="geometry" />
        </mxCell>
        <mxCell id="KDZxVL8id48o2jDcS9Ab-15" value="Clicar nos botões aonde deseja que as paredes estejam" style="text;whiteSpace=wrap;align=center;" vertex="1" parent="1">
          <mxGeometry x="354.5" y="-5" width="330" height="40" as="geometry" />
        </mxCell>
        <mxCell id="KDZxVL8id48o2jDcS9Ab-16" value="Clicar em salvar" style="text;whiteSpace=wrap;align=center;" vertex="1" parent="1">
          <mxGeometry x="777" y="-18" width="120" height="40" as="geometry" />
        </mxCell>
        <mxCell id="KDZxVL8id48o2jDcS9Ab-17" value="" style="verticalLabelPosition=bottom;html=1;verticalAlign=top;align=center;strokeColor=none;fillColor=#00BEF2;shape=mxgraph.azure.computer;pointerEvents=1;" vertex="1" parent="1">
          <mxGeometry x="1007.5" y="-70" width="50" height="45" as="geometry" />
        </mxCell>
        <mxCell id="KDZxVL8id48o2jDcS9Ab-18" style="edgeStyle=none;rounded=0;orthogonalLoop=1;jettySize=auto;html=1;exitX=0.55;exitY=0.95;exitDx=0;exitDy=0;exitPerimeter=0;entryX=0.23;entryY=0;entryDx=0;entryDy=0;entryPerimeter=0;" edge="1" parent="1" source="KDZxVL8id48o2jDcS9Ab-10" target="KDZxVL8id48o2jDcS9Ab-14">
          <mxGeometry relative="1" as="geometry" />
        </mxCell>
        <mxCell id="KDZxVL8id48o2jDcS9Ab-19" style="edgeStyle=none;rounded=0;orthogonalLoop=1;jettySize=auto;html=1;exitX=0.96;exitY=0.7;exitDx=0;exitDy=0;exitPerimeter=0;entryX=0.02;entryY=0.02;entryDx=0;entryDy=0;entryPerimeter=0;" edge="1" parent="1" source="KDZxVL8id48o2jDcS9Ab-10" target="KDZxVL8id48o2jDcS9Ab-17">
          <mxGeometry relative="1" as="geometry" />
        </mxCell>
        <mxCell id="KDZxVL8id48o2jDcS9Ab-20" style="edgeStyle=none;html=1;exitX=0.13;exitY=0.77;exitDx=0;exitDy=0;exitPerimeter=0;" edge="1" parent="1" source="KDZxVL8id48o2jDcS9Ab-21" target="KDZxVL8id48o2jDcS9Ab-22">
          <mxGeometry relative="1" as="geometry" />
        </mxCell>
        <mxCell id="KDZxVL8id48o2jDcS9Ab-21" value="" style="ellipse;shape=cloud;whiteSpace=wrap;html=1;" vertex="1" parent="1">
          <mxGeometry x="441.5" y="-80" width="120" height="80" as="geometry" />
        </mxCell>
        <mxCell id="KDZxVL8id48o2jDcS9Ab-22" value="" style="shape=mxgraph.cisco.people.androgenous_person;html=1;pointerEvents=1;dashed=0;fillColor=#036897;strokeColor=#ffffff;strokeWidth=2;verticalLabelPosition=bottom;verticalAlign=top;align=center;outlineConnect=0;" vertex="1" parent="1">
          <mxGeometry x="331.5" y="48" width="49" height="60" as="geometry" />
        </mxCell>
        <mxCell id="KDZxVL8id48o2jDcS9Ab-23" value="" style="verticalLabelPosition=bottom;html=1;verticalAlign=top;align=center;strokeColor=none;fillColor=#00BEF2;shape=mxgraph.azure.computer;pointerEvents=1;" vertex="1" parent="1">
          <mxGeometry x="576.5" y="59" width="50" height="45" as="geometry" />
        </mxCell>
        <mxCell id="KDZxVL8id48o2jDcS9Ab-24" style="edgeStyle=none;html=1;entryX=0.907;entryY=0.8;entryDx=0;entryDy=0;entryPerimeter=0;" edge="1" parent="1" source="KDZxVL8id48o2jDcS9Ab-23" target="KDZxVL8id48o2jDcS9Ab-21">
          <mxGeometry relative="1" as="geometry" />
        </mxCell>
        <mxCell id="KDZxVL8id48o2jDcS9Ab-25" style="edgeStyle=none;html=1;entryX=0;entryY=0.5;entryDx=0;entryDy=0;entryPerimeter=0;" edge="1" parent="1" source="KDZxVL8id48o2jDcS9Ab-22" target="KDZxVL8id48o2jDcS9Ab-23">
          <mxGeometry relative="1" as="geometry" />
        </mxCell>
        <mxCell id="KDZxVL8id48o2jDcS9Ab-26" value="[]&amp;gt;&amp;gt;" style="edgeLabel;html=1;align=center;verticalAlign=middle;resizable=0;points=[];" vertex="1" connectable="0" parent="KDZxVL8id48o2jDcS9Ab-25">
          <mxGeometry x="0.0085" y="-2" relative="1" as="geometry">
            <mxPoint as="offset" />
          </mxGeometry>
        </mxCell>
        <mxCell id="KDZxVL8id48o2jDcS9Ab-27" value="Clicar em um botão" style="text;html=1;align=center;verticalAlign=middle;resizable=0;points=[];autosize=1;strokeColor=none;fillColor=none;" vertex="1" parent="1">
          <mxGeometry x="299.5" y="109" width="122" height="26" as="geometry" />
        </mxCell>
        <mxCell id="KDZxVL8id48o2jDcS9Ab-28" value="Mudar opacidade do botão selecionado" style="text;html=1;align=center;verticalAlign=middle;resizable=0;points=[];autosize=1;strokeColor=none;fillColor=none;" vertex="1" parent="1">
          <mxGeometry x="493.5" y="109" width="228" height="26" as="geometry" />
        </mxCell>
        <mxCell id="KDZxVL8id48o2jDcS9Ab-29" style="edgeStyle=none;html=1;entryX=0.016;entryY=0.7;entryDx=0;entryDy=0;entryPerimeter=0;" edge="1" parent="1" source="KDZxVL8id48o2jDcS9Ab-21" target="KDZxVL8id48o2jDcS9Ab-14">
          <mxGeometry relative="1" as="geometry" />
        </mxCell>
        <mxCell id="KDZxVL8id48o2jDcS9Ab-30" value="[]&amp;gt;&amp;gt;" style="edgeLabel;html=1;align=center;verticalAlign=middle;resizable=0;points=[];" vertex="1" connectable="0" parent="KDZxVL8id48o2jDcS9Ab-29">
          <mxGeometry x="0.2027" y="-2" relative="1" as="geometry">
            <mxPoint as="offset" />
          </mxGeometry>
        </mxCell>
        <mxCell id="KDZxVL8id48o2jDcS9Ab-31" style="edgeStyle=none;html=1;entryX=0;entryY=0.5;entryDx=0;entryDy=0;entryPerimeter=0;" edge="1" parent="1" source="KDZxVL8id48o2jDcS9Ab-14" target="KDZxVL8id48o2jDcS9Ab-17">
          <mxGeometry relative="1" as="geometry" />
        </mxCell>
        <mxCell id="KDZxVL8id48o2jDcS9Ab-32" value="[]&amp;gt;&amp;gt;" style="edgeLabel;html=1;align=center;verticalAlign=middle;resizable=0;points=[];" vertex="1" connectable="0" parent="KDZxVL8id48o2jDcS9Ab-31">
          <mxGeometry x="-0.3761" y="-3" relative="1" as="geometry">
            <mxPoint as="offset" />
          </mxGeometry>
        </mxCell>
        <mxCell id="KDZxVL8id48o2jDcS9Ab-67" value="" style="shape=mxgraph.cisco.people.androgenous_person;html=1;pointerEvents=1;dashed=0;fillColor=light-dark(#036897,#0000CC);strokeColor=#ffffff;strokeWidth=2;verticalLabelPosition=bottom;verticalAlign=top;align=center;outlineConnect=0;" vertex="1" parent="1">
          <mxGeometry x="777" y="79.5" width="49" height="60" as="geometry" />
        </mxCell>
        <mxCell id="KDZxVL8id48o2jDcS9Ab-68" value="" style="verticalLabelPosition=bottom;html=1;verticalAlign=top;align=center;strokeColor=none;fillColor=light-dark(#00BEF2,#3333FF);shape=mxgraph.azure.computer;pointerEvents=1;" vertex="1" parent="1">
          <mxGeometry x="847" y="95" width="50" height="45" as="geometry" />
        </mxCell>
        <mxCell id="KDZxVL8id48o2jDcS9Ab-71" style="rounded=0;orthogonalLoop=1;jettySize=auto;html=1;entryX=0.5;entryY=0;entryDx=0;entryDy=0;fontSize=12;startSize=8;endSize=8;endArrow=none;endFill=0;" edge="1" source="KDZxVL8id48o2jDcS9Ab-72" target="KDZxVL8id48o2jDcS9Ab-74" parent="1">
          <mxGeometry relative="1" as="geometry" />
        </mxCell>
        <mxCell id="KDZxVL8id48o2jDcS9Ab-72" value="" style="ellipse;shape=cloud;whiteSpace=wrap;html=1;" vertex="1" parent="1">
          <mxGeometry x="1655" y="650" width="120" height="80" as="geometry" />
        </mxCell>
        <mxCell id="KDZxVL8id48o2jDcS9Ab-73" value="Aplicar Zoom em&lt;div&gt;uma área da arena&lt;/div&gt;" style="text;html=1;align=center;verticalAlign=middle;resizable=0;points=[];autosize=1;strokeColor=none;fillColor=none;fontSize=16;" vertex="1" parent="1">
          <mxGeometry x="1635" y="610" width="160" height="50" as="geometry" />
        </mxCell>
        <mxCell id="KDZxVL8id48o2jDcS9Ab-74" value="" style="shape=actor;whiteSpace=wrap;html=1;" vertex="1" parent="1">
          <mxGeometry x="1341" y="885" width="40" height="60" as="geometry" />
        </mxCell>
        <mxCell id="KDZxVL8id48o2jDcS9Ab-75" value="&lt;font style=&quot;font-size: 15px;&quot;&gt;Selecionar a forma&lt;/font&gt;&lt;div&gt;&lt;font style=&quot;font-size: 15px;&quot;&gt;de zoom&lt;/font&gt;&lt;/div&gt;" style="text;html=1;align=center;verticalAlign=middle;resizable=0;points=[];autosize=1;strokeColor=none;fillColor=none;fontSize=16;" vertex="1" parent="1">
          <mxGeometry x="1286" y="944" width="150" height="50" as="geometry" />
        </mxCell>
        <mxCell id="KDZxVL8id48o2jDcS9Ab-76" value="" style="shape=mxgraph.cisco.people.androgenous_person;html=1;pointerEvents=1;dashed=0;fillColor=light-dark(#036897,#0000CC);strokeColor=#ffffff;strokeWidth=2;verticalLabelPosition=bottom;verticalAlign=top;align=center;outlineConnect=0;" vertex="1" parent="1">
          <mxGeometry x="1546.5" y="1003.5" width="49" height="60" as="geometry" />
        </mxCell>
        <mxCell id="KDZxVL8id48o2jDcS9Ab-77" value="" style="ellipse;shape=cloud;whiteSpace=wrap;html=1;" vertex="1" parent="1">
          <mxGeometry x="1655" y="885" width="120" height="80" as="geometry" />
        </mxCell>
        <mxCell id="KDZxVL8id48o2jDcS9Ab-84" value="Posicionar o mouse e usar a&amp;nbsp;&lt;div&gt;roda para aplicar zoom in/zoom out&lt;/div&gt;" style="text;html=1;align=center;verticalAlign=middle;resizable=0;points=[];autosize=1;strokeColor=none;fillColor=none;fontSize=16;" vertex="1" parent="1">
          <mxGeometry x="1436" y="1066.5" width="270" height="50" as="geometry" />
        </mxCell>
        <mxCell id="KDZxVL8id48o2jDcS9Ab-85" value="" style="shape=mxgraph.cisco.people.androgenous_person;html=1;pointerEvents=1;dashed=0;fillColor=light-dark(#036897,#3333FF);strokeColor=#ffffff;strokeWidth=2;verticalLabelPosition=bottom;verticalAlign=top;align=center;outlineConnect=0;" vertex="1" parent="1">
          <mxGeometry x="1841" y="1003.5" width="49" height="60" as="geometry" />
        </mxCell>
        <mxCell id="KDZxVL8id48o2jDcS9Ab-87" value="Utilizar os botões &quot;+&quot; e &quot;-&quot;&amp;nbsp;&lt;div&gt;para aplicar zoom in/zoom out&lt;/div&gt;" style="text;html=1;align=center;verticalAlign=middle;resizable=0;points=[];autosize=1;strokeColor=none;fillColor=none;fontSize=16;" vertex="1" parent="1">
          <mxGeometry x="1745.5" y="1069" width="240" height="50" as="geometry" />
        </mxCell>
        <mxCell id="KDZxVL8id48o2jDcS9Ab-90" value="Alterar a perspectiva&amp;nbsp;&lt;div&gt;da interface&lt;/div&gt;" style="text;html=1;align=center;verticalAlign=middle;resizable=0;points=[];autosize=1;strokeColor=none;fillColor=none;fontSize=16;" vertex="1" parent="1">
          <mxGeometry x="1991" y="953.5" width="170" height="50" as="geometry" />
        </mxCell>
        <mxCell id="KDZxVL8id48o2jDcS9Ab-93" value="" style="verticalLabelPosition=bottom;html=1;verticalAlign=top;align=center;strokeColor=none;fillColor=light-dark(#00BEF2,#3333FF);shape=mxgraph.azure.computer;pointerEvents=1;" vertex="1" parent="1">
          <mxGeometry x="2051" y="902.5" width="50" height="45" as="geometry" />
        </mxCell>
        <mxCell id="KDZxVL8id48o2jDcS9Ab-96" value="Aplicar zoom" style="text;html=1;align=center;verticalAlign=middle;resizable=0;points=[];autosize=1;strokeColor=none;fillColor=none;fontSize=16;" vertex="1" parent="1">
          <mxGeometry x="1655" y="954" width="120" height="30" as="geometry" />
        </mxCell>
        <mxCell id="KDZxVL8id48o2jDcS9Ab-97" value="&lt;font style=&quot;font-size: 20px;&quot;&gt;&amp;gt;&amp;gt;&lt;/font&gt;" style="edgeStyle=none;curved=1;rounded=0;orthogonalLoop=1;jettySize=auto;html=1;entryX=0.07;entryY=0.4;entryDx=0;entryDy=0;entryPerimeter=0;fontSize=12;startSize=8;endSize=8;endArrow=none;endFill=0;" edge="1" parent="1" source="KDZxVL8id48o2jDcS9Ab-74" target="KDZxVL8id48o2jDcS9Ab-77">
          <mxGeometry relative="1" as="geometry" />
        </mxCell>
        <mxCell id="KDZxVL8id48o2jDcS9Ab-98" style="edgeStyle=none;curved=1;rounded=0;orthogonalLoop=1;jettySize=auto;html=1;exitX=0.13;exitY=0.77;exitDx=0;exitDy=0;exitPerimeter=0;entryX=0.23;entryY=0;entryDx=0;entryDy=0;entryPerimeter=0;fontSize=12;startSize=8;endSize=8;endArrow=none;endFill=0;" edge="1" parent="1" source="KDZxVL8id48o2jDcS9Ab-77" target="KDZxVL8id48o2jDcS9Ab-76">
          <mxGeometry relative="1" as="geometry" />
        </mxCell>
        <mxCell id="KDZxVL8id48o2jDcS9Ab-99" style="edgeStyle=none;curved=1;rounded=0;orthogonalLoop=1;jettySize=auto;html=1;exitX=0.96;exitY=0.7;exitDx=0;exitDy=0;exitPerimeter=0;entryX=0.23;entryY=0;entryDx=0;entryDy=0;entryPerimeter=0;fontSize=12;startSize=8;endSize=8;endArrow=none;endFill=0;" edge="1" parent="1" source="KDZxVL8id48o2jDcS9Ab-77" target="KDZxVL8id48o2jDcS9Ab-85">
          <mxGeometry relative="1" as="geometry" />
        </mxCell>
        <mxCell id="KDZxVL8id48o2jDcS9Ab-100" value="&lt;font style=&quot;font-size: 20px;&quot;&gt;[]&lt;/font&gt;" style="edgeStyle=none;curved=1;rounded=0;orthogonalLoop=1;jettySize=auto;html=1;entryX=0.01;entryY=0.5;entryDx=0;entryDy=0;entryPerimeter=0;fontSize=12;startSize=8;endSize=8;endArrow=none;endFill=0;" edge="1" parent="1" source="KDZxVL8id48o2jDcS9Ab-76" target="KDZxVL8id48o2jDcS9Ab-85">
          <mxGeometry relative="1" as="geometry" />
        </mxCell>
        <mxCell id="KDZxVL8id48o2jDcS9Ab-101" style="edgeStyle=none;curved=1;rounded=0;orthogonalLoop=1;jettySize=auto;html=1;entryX=0.4;entryY=0.1;entryDx=0;entryDy=0;entryPerimeter=0;fontSize=12;startSize=8;endSize=8;endArrow=none;endFill=0;" edge="1" parent="1" source="KDZxVL8id48o2jDcS9Ab-72" target="KDZxVL8id48o2jDcS9Ab-77">
          <mxGeometry relative="1" as="geometry" />
        </mxCell>
        <mxCell id="KDZxVL8id48o2jDcS9Ab-102" value="&lt;font style=&quot;font-size: 20px;&quot;&gt;[]&amp;gt;&amp;gt;&lt;/font&gt;" style="edgeStyle=none;curved=1;rounded=0;orthogonalLoop=1;jettySize=auto;html=1;entryX=0;entryY=0.5;entryDx=0;entryDy=0;entryPerimeter=0;fontSize=12;startSize=8;endSize=8;endArrow=none;endFill=0;" edge="1" parent="1" source="KDZxVL8id48o2jDcS9Ab-77" target="KDZxVL8id48o2jDcS9Ab-93">
          <mxGeometry relative="1" as="geometry" />
        </mxCell>
        <mxCell id="KDZxVL8id48o2jDcS9Ab-103" style="edgeStyle=none;curved=1;rounded=0;orthogonalLoop=1;jettySize=auto;html=1;exitX=0.96;exitY=0.7;exitDx=0;exitDy=0;exitPerimeter=0;entryX=0.5;entryY=0;entryDx=0;entryDy=0;entryPerimeter=0;fontSize=12;startSize=8;endSize=8;endArrow=none;endFill=0;" edge="1" parent="1" source="KDZxVL8id48o2jDcS9Ab-72" target="KDZxVL8id48o2jDcS9Ab-93">
          <mxGeometry relative="1" as="geometry" />
        </mxCell>
        <mxCell id="KDZxVL8id48o2jDcS9Ab-104" value="&lt;div style=&quot;box-sizing: border-box; position: relative; color: rgb(255, 255, 255); font-family: -apple-system, BlinkMacSystemFont, &amp;quot;Segoe UI&amp;quot;, &amp;quot;Noto Sans&amp;quot;, Helvetica, Arial, sans-serif, &amp;quot;Apple Color Emoji&amp;quot;, &amp;quot;Segoe UI Emoji&amp;quot;; text-align: start; text-wrap-mode: wrap; background-color: rgb(1, 4, 9);&quot; dir=&quot;auto&quot; class=&quot;markdown-heading&quot;&gt;&lt;h3 style=&quot;box-sizing: border-box; margin-top: 24px; margin-bottom: 16px; font-size: 1.25em; line-height: 1.25;&quot; dir=&quot;auto&quot; class=&quot;heading-element&quot; tabindex=&quot;-1&quot;&gt;3 - Importar arena&lt;/h3&gt;&lt;a style=&quot;box-sizing: border-box; background-color: rgba(0, 0, 0, 0); color: rgb(116, 185, 255); float: left; padding-right: 4px; margin: auto; line-height: 1; position: absolute; top: 12.5px; left: -28px; display: flex; width: 28px; height: 28px; border-radius: 6px; opacity: 0; justify-content: center; align-items: center; transform: translateY(-50%); text-underline-offset: 0.2rem;&quot; href=&quot;https://github.com/mdarce765/ProjetoIHC/blob/main/Arquivos/Documentos/5_analise_tarefas.md#3---importar-arena-1&quot; aria-label=&quot;Permalink: 3 - Importar arena&quot; class=&quot;anchor&quot; id=&quot;user-content-3---importar-arena-1&quot;&gt;&lt;svg aria-hidden=&quot;true&quot; height=&quot;16&quot; width=&quot;16&quot; version=&quot;1.1&quot; viewBox=&quot;0 0 16 16&quot; class=&quot;octicon octicon-link&quot;&gt;&lt;path d=&quot;m7.775 3.275 1.25-1.25a3.5 3.5 0 1 1 4.95 4.95l-2.5 2.5a3.5 3.5 0 0 1-4.95 0 .751.751 0 0 1 .018-1.042.751.751 0 0 1 1.042-.018 1.998 1.998 0 0 0 2.83 0l2.5-2.5a2.002 2.002 0 0 0-2.83-2.83l-1.25 1.25a.751.751 0 0 1-1.042-.018.751.751 0 0 1-.018-1.042Zm-4.69 9.64a1.998 1.998 0 0 0 2.83 0l1.25-1.25a.751.751 0 0 1 1.042.018.751.751 0 0 1 .018 1.042l-1.25 1.25a3.5 3.5 0 1 1-4.95-4.95l2.5-2.5a3.5 3.5 0 0 1 4.95 0 .751.751 0 0 1-.018 1.042.751.751 0 0 1-1.042.018 1.998 1.998 0 0 0-2.83 0l-2.5 2.5a1.998 1.998 0 0 0 0 2.83Z&quot;&gt;&lt;/path&gt;&lt;/svg&gt;&lt;/a&gt;&lt;/div&gt;&lt;ul style=&quot;box-sizing: border-box; padding-left: 2em; margin-top: 0px; margin-bottom: 16px; color: rgb(255, 255, 255); font-family: -apple-system, BlinkMacSystemFont, &amp;quot;Segoe UI&amp;quot;, &amp;quot;Noto Sans&amp;quot;, Helvetica, Arial, sans-serif, &amp;quot;Apple Color Emoji&amp;quot;, &amp;quot;Segoe UI Emoji&amp;quot;; text-align: start; text-wrap-mode: wrap; background-color: rgb(1, 4, 9);&quot; dir=&quot;auto&quot;&gt;&lt;li style=&quot;box-sizing: border-box;&quot;&gt;&lt;span style=&quot;box-sizing: border-box; font-weight: 600;&quot;&gt;GOAL 0&lt;/span&gt;: Importar arena para a interface.&lt;ul style=&quot;box-sizing: border-box; padding-left: 2em; margin-top: 0px; margin-bottom: 0px;&quot; dir=&quot;auto&quot;&gt;&lt;li style=&quot;box-sizing: border-box;&quot;&gt;&lt;p style=&quot;box-sizing: border-box; margin-top: 16px; margin-bottom: 16px;&quot; dir=&quot;auto&quot;&gt;&lt;span style=&quot;box-sizing: border-box; font-weight: 600;&quot;&gt;METHOD 0.A:&lt;/span&gt;&amp;nbsp;Utilizar o botão &#39;Arquivo&#39; da interface&lt;br style=&quot;box-sizing: border-box;&quot;&gt;&lt;span style=&quot;box-sizing: border-box; font-weight: 600;&quot;&gt;(SEL. RULE:&lt;/span&gt;&amp;nbsp;Falta de costume/conhecimento.&amp;nbsp;&lt;span style=&quot;box-sizing: border-box; font-weight: 600;&quot;&gt;)&lt;/span&gt;&lt;/p&gt;&lt;ul style=&quot;box-sizing: border-box; padding-left: 2em; margin-top: 0px; margin-bottom: 0px;&quot; dir=&quot;auto&quot;&gt;&lt;li style=&quot;box-sizing: border-box;&quot;&gt;&lt;span style=&quot;box-sizing: border-box; font-weight: 600;&quot;&gt;OP 0.A.1:&lt;/span&gt;&amp;nbsp;Selecionar a opção de &quot;Abrir Arquivo&quot;&lt;ul style=&quot;box-sizing: border-box; padding-left: 2em; margin-top: 0px; margin-bottom: 0px;&quot; dir=&quot;auto&quot;&gt;&lt;li style=&quot;box-sizing: border-box;&quot;&gt;&lt;span style=&quot;box-sizing: border-box; font-weight: 600;&quot;&gt;METHOD 0.A.1.A:&lt;/span&gt;&amp;nbsp;Selecionar arquivo&lt;br style=&quot;box-sizing: border-box;&quot;&gt;&lt;span style=&quot;box-sizing: border-box; font-weight: 600;&quot;&gt;(SEL. RULE:&lt;/span&gt;&amp;nbsp;Preferencia.&amp;nbsp;&lt;span style=&quot;box-sizing: border-box; font-weight: 600;&quot;&gt;)&lt;/span&gt;&lt;ul style=&quot;box-sizing: border-box; padding-left: 2em; margin-top: 0px; margin-bottom: 0px;&quot; dir=&quot;auto&quot;&gt;&lt;li style=&quot;box-sizing: border-box;&quot;&gt;&lt;span style=&quot;box-sizing: border-box; font-weight: 600;&quot;&gt;OP 0.A.1.A.1:&lt;/span&gt;&amp;nbsp;Digitar o nome do arquivo&lt;/li&gt;&lt;li style=&quot;box-sizing: border-box; margin-top: 0.25em;&quot;&gt;&lt;span style=&quot;box-sizing: border-box; font-weight: 600;&quot;&gt;OP 0.A.1.A.2:&lt;/span&gt;&amp;nbsp;Selecionar o arquivo&lt;/li&gt;&lt;/ul&gt;&lt;/li&gt;&lt;/ul&gt;&lt;/li&gt;&lt;/ul&gt;&lt;/li&gt;&lt;li style=&quot;box-sizing: border-box; margin-top: 0.25em;&quot;&gt;&lt;p style=&quot;box-sizing: border-box; margin-top: 16px; margin-bottom: 16px;&quot; dir=&quot;auto&quot;&gt;&lt;span style=&quot;box-sizing: border-box; font-weight: 600;&quot;&gt;METHOD 0.B:&lt;/span&gt;&amp;nbsp;Utilizar comando do teclado&lt;br style=&quot;box-sizing: border-box;&quot;&gt;&lt;span style=&quot;box-sizing: border-box; font-weight: 600;&quot;&gt;(SEL. RULE:&lt;/span&gt;&amp;nbsp;Praticidade.&amp;nbsp;&lt;span style=&quot;box-sizing: border-box; font-weight: 600;&quot;&gt;)&lt;/span&gt;&lt;/p&gt;&lt;ul style=&quot;box-sizing: border-box; padding-left: 2em; margin-top: 0px; margin-bottom: 0px;&quot; dir=&quot;auto&quot;&gt;&lt;li style=&quot;box-sizing: border-box;&quot;&gt;&lt;span style=&quot;box-sizing: border-box; font-weight: 600;&quot;&gt;OP 0.B.1:&lt;/span&gt;&amp;nbsp;Digitar o nome do arquivo&lt;/li&gt;&lt;li style=&quot;box-sizing: border-box; margin-top: 0.25em;&quot;&gt;&lt;span style=&quot;box-sizing: border-box; font-weight: 600;&quot;&gt;OP 0.B.2&lt;/span&gt;&amp;nbsp;Selecionar o arquivo&lt;/li&gt;&lt;/ul&gt;&lt;/li&gt;&lt;li style=&quot;box-sizing: border-box; margin-top: 0.25em;&quot;&gt;&lt;p style=&quot;box-sizing: border-box; margin-top: 16px; margin-bottom: 16px;&quot; dir=&quot;auto&quot;&gt;&lt;span style=&quot;box-sizing: border-box; font-weight: 600;&quot;&gt;METHOD 0.C:&lt;/span&gt;&amp;nbsp;Inicializar pelo terminal&lt;br style=&quot;box-sizing: border-box;&quot;&gt;&lt;span style=&quot;box-sizing: border-box; font-weight: 600;&quot;&gt;(SEL. RULE:&lt;/span&gt;&amp;nbsp;Praticidade.&amp;nbsp;&lt;span style=&quot;box-sizing: border-box; font-weight: 600;&quot;&gt;)&lt;/span&gt;&lt;/p&gt;&lt;/li&gt;&lt;/ul&gt;&lt;/li&gt;&lt;/ul&gt;" style="text;html=1;align=center;verticalAlign=middle;resizable=0;points=[];autosize=1;strokeColor=none;fillColor=none;fontSize=16;" vertex="1" parent="1">
          <mxGeometry x="2151.5" y="-660" width="460" height="450" as="geometry" />
        </mxCell>
        <mxCell id="KDZxVL8id48o2jDcS9Ab-105" style="rounded=0;orthogonalLoop=1;jettySize=auto;html=1;entryX=0.5;entryY=0;entryDx=0;entryDy=0;fontSize=12;startSize=8;endSize=8;endArrow=none;endFill=0;" edge="1" source="KDZxVL8id48o2jDcS9Ab-106" target="KDZxVL8id48o2jDcS9Ab-108" parent="1">
          <mxGeometry relative="1" as="geometry" />
        </mxCell>
        <mxCell id="KDZxVL8id48o2jDcS9Ab-106" value="" style="ellipse;shape=cloud;whiteSpace=wrap;html=1;" vertex="1" parent="1">
          <mxGeometry x="1645.5" y="-490" width="120" height="80" as="geometry" />
        </mxCell>
        <mxCell id="KDZxVL8id48o2jDcS9Ab-107" value="Importar uma arena&amp;nbsp;&lt;div&gt;para a interface&lt;/div&gt;" style="text;html=1;align=center;verticalAlign=middle;resizable=0;points=[];autosize=1;strokeColor=none;fillColor=none;fontSize=16;" vertex="1" parent="1">
          <mxGeometry x="1620.5" y="-530" width="170" height="50" as="geometry" />
        </mxCell>
        <mxCell id="KDZxVL8id48o2jDcS9Ab-108" value="" style="shape=actor;whiteSpace=wrap;html=1;" vertex="1" parent="1">
          <mxGeometry x="1331.5" y="-255" width="40" height="60" as="geometry" />
        </mxCell>
        <mxCell id="KDZxVL8id48o2jDcS9Ab-109" value="&lt;span style=&quot;font-size: 15px;&quot;&gt;Selecionar a forma&amp;nbsp;&lt;/span&gt;&lt;div&gt;&lt;span style=&quot;font-size: 15px;&quot;&gt;de importação&lt;/span&gt;&lt;/div&gt;" style="text;html=1;align=center;verticalAlign=middle;resizable=0;points=[];autosize=1;strokeColor=none;fillColor=none;fontSize=16;" vertex="1" parent="1">
          <mxGeometry x="1276.5" y="-196" width="150" height="50" as="geometry" />
        </mxCell>
        <mxCell id="KDZxVL8id48o2jDcS9Ab-111" value="" style="ellipse;shape=cloud;whiteSpace=wrap;html=1;" vertex="1" parent="1">
          <mxGeometry x="1645.5" y="-255" width="120" height="80" as="geometry" />
        </mxCell>
        <mxCell id="KDZxVL8id48o2jDcS9Ab-112" value="Importar arena por&amp;nbsp;&lt;div&gt;meio do botão &quot;Arquivo&quot;&lt;/div&gt;" style="text;html=1;align=center;verticalAlign=middle;resizable=0;points=[];autosize=1;strokeColor=none;fillColor=none;fontSize=16;" vertex="1" parent="1">
          <mxGeometry x="1356" y="-76" width="190" height="50" as="geometry" />
        </mxCell>
        <mxCell id="KDZxVL8id48o2jDcS9Ab-114" value="Importar arena por meio&amp;nbsp;&lt;div&gt;de comando do teclado&lt;/div&gt;" style="text;html=1;align=center;verticalAlign=middle;resizable=0;points=[];autosize=1;strokeColor=none;fillColor=none;fontSize=16;" vertex="1" parent="1">
          <mxGeometry x="1623.5" y="-71" width="200" height="50" as="geometry" />
        </mxCell>
        <mxCell id="KDZxVL8id48o2jDcS9Ab-115" value="Alterar a arena&amp;nbsp;&lt;div&gt;apresentada na interface&lt;/div&gt;" style="text;html=1;align=center;verticalAlign=middle;resizable=0;points=[];autosize=1;strokeColor=none;fillColor=none;fontSize=16;" vertex="1" parent="1">
          <mxGeometry x="1966.5" y="-196" width="200" height="50" as="geometry" />
        </mxCell>
        <mxCell id="KDZxVL8id48o2jDcS9Ab-116" value="" style="verticalLabelPosition=bottom;html=1;verticalAlign=top;align=center;strokeColor=none;fillColor=light-dark(#00BEF2,#3333FF);shape=mxgraph.azure.computer;pointerEvents=1;" vertex="1" parent="1">
          <mxGeometry x="2041.5" y="-237.5" width="50" height="45" as="geometry" />
        </mxCell>
        <mxCell id="KDZxVL8id48o2jDcS9Ab-117" value="Importar arena" style="text;html=1;align=center;verticalAlign=middle;resizable=0;points=[];autosize=1;strokeColor=none;fillColor=none;fontSize=16;" vertex="1" parent="1">
          <mxGeometry x="1720" y="-280" width="130" height="30" as="geometry" />
        </mxCell>
        <mxCell id="KDZxVL8id48o2jDcS9Ab-118" value="&lt;font style=&quot;font-size: 20px;&quot;&gt;&amp;gt;&amp;gt;&lt;/font&gt;" style="edgeStyle=none;curved=1;rounded=0;orthogonalLoop=1;jettySize=auto;html=1;entryX=0.07;entryY=0.4;entryDx=0;entryDy=0;entryPerimeter=0;fontSize=12;startSize=8;endSize=8;endArrow=none;endFill=0;" edge="1" source="KDZxVL8id48o2jDcS9Ab-108" target="KDZxVL8id48o2jDcS9Ab-111" parent="1">
          <mxGeometry relative="1" as="geometry" />
        </mxCell>
        <mxCell id="KDZxVL8id48o2jDcS9Ab-119" style="edgeStyle=none;curved=1;rounded=0;orthogonalLoop=1;jettySize=auto;html=1;exitX=0.13;exitY=0.77;exitDx=0;exitDy=0;exitPerimeter=0;entryX=0.4;entryY=0.1;entryDx=0;entryDy=0;entryPerimeter=0;fontSize=12;startSize=8;endSize=8;endArrow=none;endFill=0;" edge="1" source="KDZxVL8id48o2jDcS9Ab-111" target="KDZxVL8id48o2jDcS9Ab-130" parent="1">
          <mxGeometry relative="1" as="geometry">
            <mxPoint x="1437.77" y="-133.5" as="targetPoint" />
          </mxGeometry>
        </mxCell>
        <mxCell id="KDZxVL8id48o2jDcS9Ab-121" value="&lt;font style=&quot;font-size: 20px;&quot;&gt;[]&lt;/font&gt;" style="edgeStyle=none;curved=1;rounded=0;orthogonalLoop=1;jettySize=auto;html=1;fontSize=12;startSize=8;endSize=8;endArrow=none;endFill=0;exitX=0.742;exitY=0.581;exitDx=0;exitDy=0;exitPerimeter=0;entryX=0.229;entryY=0.53;entryDx=0;entryDy=0;entryPerimeter=0;" edge="1" source="KDZxVL8id48o2jDcS9Ab-130" target="KDZxVL8id48o2jDcS9Ab-132" parent="1">
          <mxGeometry relative="1" as="geometry">
            <mxPoint x="1475.5000000000005" y="-103.5" as="sourcePoint" />
            <mxPoint x="1690" y="-103" as="targetPoint" />
          </mxGeometry>
        </mxCell>
        <mxCell id="KDZxVL8id48o2jDcS9Ab-122" style="edgeStyle=none;curved=1;rounded=0;orthogonalLoop=1;jettySize=auto;html=1;entryX=0.4;entryY=0.1;entryDx=0;entryDy=0;entryPerimeter=0;fontSize=12;startSize=8;endSize=8;endArrow=none;endFill=0;" edge="1" source="KDZxVL8id48o2jDcS9Ab-106" target="KDZxVL8id48o2jDcS9Ab-111" parent="1">
          <mxGeometry relative="1" as="geometry" />
        </mxCell>
        <mxCell id="KDZxVL8id48o2jDcS9Ab-123" value="&lt;font style=&quot;font-size: 20px;&quot;&gt;[]&amp;gt;&amp;gt;&lt;/font&gt;" style="edgeStyle=none;curved=1;rounded=0;orthogonalLoop=1;jettySize=auto;html=1;entryX=0;entryY=0.5;entryDx=0;entryDy=0;entryPerimeter=0;fontSize=12;startSize=8;endSize=8;endArrow=none;endFill=0;" edge="1" source="KDZxVL8id48o2jDcS9Ab-111" target="KDZxVL8id48o2jDcS9Ab-116" parent="1">
          <mxGeometry relative="1" as="geometry" />
        </mxCell>
        <mxCell id="KDZxVL8id48o2jDcS9Ab-124" style="edgeStyle=none;curved=1;rounded=0;orthogonalLoop=1;jettySize=auto;html=1;exitX=0.96;exitY=0.7;exitDx=0;exitDy=0;exitPerimeter=0;entryX=0.5;entryY=0;entryDx=0;entryDy=0;entryPerimeter=0;fontSize=12;startSize=8;endSize=8;endArrow=none;endFill=0;" edge="1" source="KDZxVL8id48o2jDcS9Ab-106" target="KDZxVL8id48o2jDcS9Ab-116" parent="1">
          <mxGeometry relative="1" as="geometry" />
        </mxCell>
        <mxCell id="KDZxVL8id48o2jDcS9Ab-125" style="edgeStyle=none;curved=1;rounded=0;orthogonalLoop=1;jettySize=auto;html=1;exitX=0.55;exitY=0.95;exitDx=0;exitDy=0;exitPerimeter=0;entryX=0.474;entryY=0.122;entryDx=0;entryDy=0;entryPerimeter=0;fontSize=12;startSize=8;endSize=8;endArrow=none;endFill=0;" edge="1" parent="1" source="KDZxVL8id48o2jDcS9Ab-111" target="KDZxVL8id48o2jDcS9Ab-132">
          <mxGeometry relative="1" as="geometry">
            <mxPoint x="1710.27" y="-133.5" as="targetPoint" />
          </mxGeometry>
        </mxCell>
        <mxCell id="KDZxVL8id48o2jDcS9Ab-127" value="&lt;font style=&quot;font-size: 20px;&quot;&gt;[]&lt;/font&gt;" style="edgeStyle=none;curved=1;rounded=0;orthogonalLoop=1;jettySize=auto;html=1;exitX=0.875;exitY=0.5;exitDx=0;exitDy=0;exitPerimeter=0;entryX=0.104;entryY=0.691;entryDx=0;entryDy=0;entryPerimeter=0;fontSize=12;startSize=8;endSize=8;endArrow=none;endFill=0;" edge="1" parent="1" source="KDZxVL8id48o2jDcS9Ab-132" target="KDZxVL8id48o2jDcS9Ab-133">
          <mxGeometry relative="1" as="geometry">
            <mxPoint x="1748.0000000000005" y="-103.5" as="sourcePoint" />
            <mxPoint x="1910.4899999999998" y="-103.5" as="targetPoint" />
          </mxGeometry>
        </mxCell>
        <mxCell id="KDZxVL8id48o2jDcS9Ab-128" style="edgeStyle=none;curved=1;rounded=0;orthogonalLoop=1;jettySize=auto;html=1;exitX=0.96;exitY=0.7;exitDx=0;exitDy=0;exitPerimeter=0;entryX=0.165;entryY=0.283;entryDx=0;entryDy=0;entryPerimeter=0;fontSize=12;startSize=8;endSize=8;endArrow=none;endFill=0;" edge="1" parent="1" source="KDZxVL8id48o2jDcS9Ab-111" target="KDZxVL8id48o2jDcS9Ab-133">
          <mxGeometry relative="1" as="geometry">
            <mxPoint x="1921.2699999999995" y="-133.5" as="targetPoint" />
          </mxGeometry>
        </mxCell>
        <mxCell id="KDZxVL8id48o2jDcS9Ab-129" value="Importar arena&amp;nbsp;&lt;div&gt;por meio do terminal&lt;/div&gt;" style="text;html=1;align=center;verticalAlign=middle;resizable=0;points=[];autosize=1;strokeColor=none;fillColor=none;fontSize=16;" vertex="1" parent="1">
          <mxGeometry x="1881" y="-75" width="170" height="50" as="geometry" />
        </mxCell>
        <mxCell id="KDZxVL8id48o2jDcS9Ab-130" value="" style="ellipse;shape=cloud;whiteSpace=wrap;html=1;" vertex="1" parent="1">
          <mxGeometry x="1391" y="-150" width="120" height="80" as="geometry" />
        </mxCell>
        <mxCell id="KDZxVL8id48o2jDcS9Ab-131" value="" style="ellipse;shape=cloud;whiteSpace=wrap;html=1;" vertex="1" parent="1">
          <mxGeometry x="1000" y="63" width="120" height="80" as="geometry" />
        </mxCell>
        <mxCell id="KDZxVL8id48o2jDcS9Ab-132" value="" style="ellipse;shape=cloud;whiteSpace=wrap;html=1;" vertex="1" parent="1">
          <mxGeometry x="1655" y="-146" width="120" height="80" as="geometry" />
        </mxCell>
        <mxCell id="KDZxVL8id48o2jDcS9Ab-133" value="" style="ellipse;shape=cloud;whiteSpace=wrap;html=1;" vertex="1" parent="1">
          <mxGeometry x="1890" y="-158" width="120" height="80" as="geometry" />
        </mxCell>
        <mxCell id="KDZxVL8id48o2jDcS9Ab-134" value="" style="shape=mxgraph.cisco.people.androgenous_person;html=1;pointerEvents=1;dashed=0;fillColor=light-dark(#036897,#0000CC);strokeColor=#ffffff;strokeWidth=2;verticalLabelPosition=bottom;verticalAlign=top;align=center;outlineConnect=0;" vertex="1" parent="1">
          <mxGeometry x="1150.5" y="56.25" width="49" height="60" as="geometry" />
        </mxCell>
        <mxCell id="KDZxVL8id48o2jDcS9Ab-135" value="" style="shape=mxgraph.cisco.people.androgenous_person;html=1;pointerEvents=1;dashed=0;fillColor=light-dark(#036897,#0000CC);strokeColor=#ffffff;strokeWidth=2;verticalLabelPosition=bottom;verticalAlign=top;align=center;outlineConnect=0;" vertex="1" parent="1">
          <mxGeometry x="1336.5" y="56.25" width="49" height="60" as="geometry" />
        </mxCell>
        <mxCell id="KDZxVL8id48o2jDcS9Ab-137" style="edgeStyle=none;curved=1;rounded=0;orthogonalLoop=1;jettySize=auto;html=1;entryX=0.23;entryY=0;entryDx=0;entryDy=0;entryPerimeter=0;fontSize=12;startSize=8;endSize=8;exitX=0.028;exitY=0.942;exitDx=0;exitDy=0;exitPerimeter=0;endArrow=none;endFill=0;" edge="1" parent="1" source="KDZxVL8id48o2jDcS9Ab-112" target="KDZxVL8id48o2jDcS9Ab-134">
          <mxGeometry relative="1" as="geometry" />
        </mxCell>
        <mxCell id="KDZxVL8id48o2jDcS9Ab-138" style="edgeStyle=none;curved=1;rounded=0;orthogonalLoop=1;jettySize=auto;html=1;entryX=0.23;entryY=0;entryDx=0;entryDy=0;entryPerimeter=0;fontSize=12;startSize=8;endSize=8;endArrow=none;endFill=0;" edge="1" parent="1" source="KDZxVL8id48o2jDcS9Ab-112" target="KDZxVL8id48o2jDcS9Ab-135">
          <mxGeometry relative="1" as="geometry" />
        </mxCell>
        <mxCell id="KDZxVL8id48o2jDcS9Ab-139" style="edgeStyle=none;curved=1;rounded=0;orthogonalLoop=1;jettySize=auto;html=1;exitX=0.998;exitY=0.963;exitDx=0;exitDy=0;exitPerimeter=0;entryX=0.5;entryY=0;entryDx=0;entryDy=0;entryPerimeter=0;fontSize=12;startSize=8;endSize=8;endArrow=none;endFill=0;" edge="1" parent="1" source="KDZxVL8id48o2jDcS9Ab-112" target="KDZxVL8id48o2jDcS9Ab-141">
          <mxGeometry relative="1" as="geometry">
            <mxPoint x="1585.77" y="19.5" as="targetPoint" />
          </mxGeometry>
        </mxCell>
        <mxCell id="KDZxVL8id48o2jDcS9Ab-140" value="&lt;font style=&quot;font-size: 20px;&quot;&gt;[]&lt;/font&gt;" style="edgeStyle=none;curved=1;rounded=0;orthogonalLoop=1;jettySize=auto;html=1;entryX=0.01;entryY=0.5;entryDx=0;entryDy=0;entryPerimeter=0;fontSize=12;startSize=8;endSize=8;endArrow=none;endFill=0;" edge="1" parent="1" source="KDZxVL8id48o2jDcS9Ab-134" target="KDZxVL8id48o2jDcS9Ab-135">
          <mxGeometry relative="1" as="geometry" />
        </mxCell>
        <mxCell id="KDZxVL8id48o2jDcS9Ab-141" value="" style="verticalLabelPosition=bottom;html=1;verticalAlign=top;align=center;strokeColor=none;fillColor=light-dark(#00BEF2,#3333FF);shape=mxgraph.azure.computer;pointerEvents=1;" vertex="1" parent="1">
          <mxGeometry x="1496" y="63.75" width="50" height="45" as="geometry" />
        </mxCell>
        <mxCell id="KDZxVL8id48o2jDcS9Ab-142" value="&lt;font style=&quot;font-size: 20px;&quot;&gt;&amp;gt;&amp;gt;&lt;/font&gt;" style="edgeStyle=none;curved=1;rounded=0;orthogonalLoop=1;jettySize=auto;html=1;entryX=0;entryY=0.5;entryDx=0;entryDy=0;entryPerimeter=0;fontSize=12;startSize=8;endSize=8;" edge="1" parent="1" source="KDZxVL8id48o2jDcS9Ab-135" target="KDZxVL8id48o2jDcS9Ab-141">
          <mxGeometry relative="1" as="geometry" />
        </mxCell>
        <mxCell id="KDZxVL8id48o2jDcS9Ab-143" value="Buscar a arquivo&amp;nbsp;&lt;div&gt;por meio do nome&lt;/div&gt;" style="text;html=1;align=center;verticalAlign=middle;resizable=0;points=[];autosize=1;strokeColor=none;fillColor=none;fontSize=16;" vertex="1" parent="1">
          <mxGeometry x="1100" y="111.25" width="150" height="50" as="geometry" />
        </mxCell>
        <mxCell id="KDZxVL8id48o2jDcS9Ab-144" value="Buscar arquivo por meio&amp;nbsp;&lt;div&gt;da seleção com o mouse&lt;/div&gt;" style="text;html=1;align=center;verticalAlign=middle;resizable=0;points=[];autosize=1;strokeColor=none;fillColor=none;fontSize=16;" vertex="1" parent="1">
          <mxGeometry x="1261" y="112.75" width="200" height="50" as="geometry" />
        </mxCell>
        <mxCell id="KDZxVL8id48o2jDcS9Ab-145" value="Importar o arquivo" style="text;html=1;align=center;verticalAlign=middle;resizable=0;points=[];autosize=1;strokeColor=none;fillColor=none;fontSize=16;" vertex="1" parent="1">
          <mxGeometry x="1446" y="116.25" width="150" height="30" as="geometry" />
        </mxCell>
        <mxCell id="KDZxVL8id48o2jDcS9Ab-146" value="" style="shape=mxgraph.cisco.people.androgenous_person;html=1;pointerEvents=1;dashed=0;fillColor=light-dark(#036897,#0000CC);strokeColor=#ffffff;strokeWidth=2;verticalLabelPosition=bottom;verticalAlign=top;align=center;outlineConnect=0;" vertex="1" parent="1">
          <mxGeometry x="1604.5" y="9.75" width="49" height="60" as="geometry" />
        </mxCell>
        <mxCell id="KDZxVL8id48o2jDcS9Ab-147" value="" style="shape=mxgraph.cisco.people.androgenous_person;html=1;pointerEvents=1;dashed=0;fillColor=light-dark(#036897,#0000CC);strokeColor=#ffffff;strokeWidth=2;verticalLabelPosition=bottom;verticalAlign=top;align=center;outlineConnect=0;" vertex="1" parent="1">
          <mxGeometry x="1790.5" y="9.75" width="49" height="60" as="geometry" />
        </mxCell>
        <mxCell id="KDZxVL8id48o2jDcS9Ab-148" style="edgeStyle=none;curved=1;rounded=0;orthogonalLoop=1;jettySize=auto;html=1;entryX=0.23;entryY=0;entryDx=0;entryDy=0;entryPerimeter=0;fontSize=12;startSize=8;endSize=8;exitX=0.028;exitY=0.942;exitDx=0;exitDy=0;exitPerimeter=0;endArrow=none;endFill=0;" edge="1" target="KDZxVL8id48o2jDcS9Ab-146" parent="1">
          <mxGeometry relative="1" as="geometry">
            <mxPoint x="1715.5" y="-42.25" as="sourcePoint" />
          </mxGeometry>
        </mxCell>
        <mxCell id="KDZxVL8id48o2jDcS9Ab-149" style="edgeStyle=none;curved=1;rounded=0;orthogonalLoop=1;jettySize=auto;html=1;entryX=0.23;entryY=0;entryDx=0;entryDy=0;entryPerimeter=0;fontSize=12;startSize=8;endSize=8;endArrow=none;endFill=0;" edge="1" target="KDZxVL8id48o2jDcS9Ab-147" parent="1">
          <mxGeometry relative="1" as="geometry">
            <mxPoint x="1804.5" y="-39.25" as="sourcePoint" />
          </mxGeometry>
        </mxCell>
        <mxCell id="KDZxVL8id48o2jDcS9Ab-150" style="edgeStyle=none;curved=1;rounded=0;orthogonalLoop=1;jettySize=auto;html=1;exitX=0.998;exitY=0.963;exitDx=0;exitDy=0;exitPerimeter=0;entryX=0.5;entryY=0;entryDx=0;entryDy=0;entryPerimeter=0;fontSize=12;startSize=8;endSize=8;endArrow=none;endFill=0;" edge="1" target="KDZxVL8id48o2jDcS9Ab-152" parent="1">
          <mxGeometry relative="1" as="geometry">
            <mxPoint x="1900.5" y="-41.25" as="sourcePoint" />
            <mxPoint x="1940.27" y="6.25" as="targetPoint" />
          </mxGeometry>
        </mxCell>
        <mxCell id="KDZxVL8id48o2jDcS9Ab-151" value="&lt;font style=&quot;font-size: 20px;&quot;&gt;[]&lt;/font&gt;" style="edgeStyle=none;curved=1;rounded=0;orthogonalLoop=1;jettySize=auto;html=1;entryX=0.01;entryY=0.5;entryDx=0;entryDy=0;entryPerimeter=0;fontSize=12;startSize=8;endSize=8;endArrow=none;endFill=0;" edge="1" source="KDZxVL8id48o2jDcS9Ab-146" target="KDZxVL8id48o2jDcS9Ab-147" parent="1">
          <mxGeometry relative="1" as="geometry" />
        </mxCell>
        <mxCell id="KDZxVL8id48o2jDcS9Ab-152" value="" style="verticalLabelPosition=bottom;html=1;verticalAlign=top;align=center;strokeColor=none;fillColor=light-dark(#00BEF2,#3333FF);shape=mxgraph.azure.computer;pointerEvents=1;" vertex="1" parent="1">
          <mxGeometry x="1950" y="17.25" width="50" height="45" as="geometry" />
        </mxCell>
        <mxCell id="KDZxVL8id48o2jDcS9Ab-153" value="&lt;font style=&quot;font-size: 20px;&quot;&gt;&amp;gt;&amp;gt;&lt;/font&gt;" style="edgeStyle=none;curved=1;rounded=0;orthogonalLoop=1;jettySize=auto;html=1;entryX=0;entryY=0.5;entryDx=0;entryDy=0;entryPerimeter=0;fontSize=12;startSize=8;endSize=8;" edge="1" source="KDZxVL8id48o2jDcS9Ab-147" target="KDZxVL8id48o2jDcS9Ab-152" parent="1">
          <mxGeometry relative="1" as="geometry" />
        </mxCell>
        <mxCell id="KDZxVL8id48o2jDcS9Ab-154" value="Buscar a arquivo&amp;nbsp;&lt;div&gt;por meio do nome&lt;/div&gt;" style="text;html=1;align=center;verticalAlign=middle;resizable=0;points=[];autosize=1;strokeColor=none;fillColor=none;fontSize=16;" vertex="1" parent="1">
          <mxGeometry x="1554" y="64.75" width="150" height="50" as="geometry" />
        </mxCell>
        <mxCell id="KDZxVL8id48o2jDcS9Ab-155" value="Buscar arquivo por meio&amp;nbsp;&lt;div&gt;da seleção com o mouse&lt;/div&gt;" style="text;html=1;align=center;verticalAlign=middle;resizable=0;points=[];autosize=1;strokeColor=none;fillColor=none;fontSize=16;" vertex="1" parent="1">
          <mxGeometry x="1715" y="66.25" width="200" height="50" as="geometry" />
        </mxCell>
        <mxCell id="KDZxVL8id48o2jDcS9Ab-156" value="Importar o arquivo" style="text;html=1;align=center;verticalAlign=middle;resizable=0;points=[];autosize=1;strokeColor=none;fillColor=none;fontSize=16;" vertex="1" parent="1">
          <mxGeometry x="1901" y="60.75" width="150" height="30" as="geometry" />
        </mxCell>
      </root>
    </mxGraphModel>
  </diagram>
</mxfile>
